<svg width="15" height="13" viewBox="0 0 15 13" fill="none" xmlns="http://www.w3.org/2000/svg">
<path d="M13.5412 5.13462L2.24568 0.478639C1.76982 0.282469 1.23221 0.368766 0.8427 0.703738C0.453187 1.03876 0.290273 1.55497 0.417586 2.05088L1.42299 5.96754H6.34558C6.5721 5.96754 6.75576 6.14997 6.75576 6.37501C6.75576 6.60003 6.57212 6.78248 6.34558 6.78248H1.42299L0.417586 10.6991C0.290273 11.1951 0.45316 11.7113 0.8427 12.0463C1.233 12.3819 1.77067 12.4672 2.24571 12.2714L13.5413 7.61541C14.0555 7.40343 14.375 6.92813 14.375 6.37501C14.375 5.8219 14.0555 5.34657 13.5412 5.13462Z" fill="white"/>
</svg>
