<svg width="12" height="8" viewBox="0 0 12 8" fill="none" xmlns="http://www.w3.org/2000/svg">
<path d="M5.99643 7.6383C2.85194 7.6383 0.389655 4.24856 0.285743 4.10319C0.188607 3.96705 0.188607 3.78014 0.285743 3.644C0.389655 3.49862 2.85194 0.108887 5.99643 0.108887C9.14092 0.108887 11.6032 3.49862 11.7049 3.644C11.802 3.78014 11.802 3.96705 11.7049 4.10319C11.6032 4.24856 9.14092 7.6383 5.99643 7.6383ZM1.0809 3.87475C1.67501 4.60854 3.68098 6.86067 5.99643 6.86067C8.3164 6.86067 10.3201 4.61084 10.912 3.87475C10.3178 3.13865 8.31188 0.888826 5.99643 0.888826C3.6742 0.888826 1.67275 3.13634 1.0809 3.87475Z" fill="#838A91"/>
<path d="M5.99733 6.21006C4.73682 6.21006 3.70898 5.16245 3.70898 3.87256C3.70898 2.58266 4.73682 1.53735 5.99733 1.53735C7.25783 1.53735 8.28567 2.58496 8.28567 3.87486C8.28567 5.16476 7.25783 6.21006 5.99733 6.21006ZM5.99733 2.31498C5.15699 2.31498 4.47252 3.01416 4.47252 3.87256C4.47252 4.73095 5.15699 5.43013 5.99733 5.43013C6.83766 5.43013 7.52213 4.73095 7.52213 3.87256C7.52213 3.01416 6.83766 2.31498 5.99733 2.31498Z" fill="#838A91"/>
</svg>
